<svg xmlns="http://www.w3.org/2000/svg" width="400" height="400">
<rect width="100%" height="100%" fill="#f5d228"/>
<circle cx="180" cy="200" r="140" fill="none" stroke="#005c3c" stroke-width="12"/>
<circle cx="180" cy="200" r="110" fill="none" stroke="#005c3c" stroke-width="8"/><circle cx="308.0" cy="200.0" r="7" fill="#005c3c"/><circle cx="290.9" cy="264.0" r="7" fill="#005c3c"/><circle cx="244.0" cy="310.9" r="7" fill="#005c3c"/><circle cx="180.0" cy="328.0" r="7" fill="#005c3c"/><circle cx="116.0" cy="310.9" r="7" fill="#005c3c"/><circle cx="69.1" cy="264.0" r="7" fill="#005c3c"/><circle cx="52.0" cy="200.0" r="7" fill="#005c3c"/><circle cx="69.1" cy="136.0" r="7" fill="#005c3c"/><circle cx="116.0" cy="89.1" r="7" fill="#005c3c"/><circle cx="180.0" cy="72.0" r="7" fill="#005c3c"/><circle cx="244.0" cy="89.1" r="7" fill="#005c3c"/><circle cx="290.9" cy="136.0" r="7" fill="#005c3c"/><path d="M 136.0 262.6 L 136.0 118.6 L 168.0 198.6 L 180.0 170.6 L 192.0 198.6 L 224.0 118.6 L 224.0 262.6 Z" fill="#005c3c"/></svg>