<svg viewBox="0 0 200 200" xmlns="http://www.w3.org/2000/svg"><defs><radialGradient id="gold-grad" cx="50%" cy="50%" r="50%" fx="50%" fy="50%"><stop offset="0%" stop-color="#ffd700" /><stop offset="100%" stop-color="#daa520" /></radialGradient><path id="curve-top" d="M 15,100 A 85,85 0 1,1 185,100" /><path id="curve-bottom" d="M 15,100 A 85,85 0 0,0 185,100" /><style>.curved-text { fill: #005c3c; font-family: sans-serif; font-weight: bold; font-size: 19px; letter-spacing: 2px; }</style></defs><circle cx="100" cy="100" r="100" fill="url(#gold-grad)" /><g transform="translate(28, 20) scale(0.4)"><circle cx="180" cy="200" r="140" fill="none" stroke="#005c3c" stroke-width="12"/><circle cx="180" cy="200" r="110" fill="none" stroke="#005c3c" stroke-width="8"/><circle cx="308.0" cy="200.0" r="7" fill="#005c3c"/><circle cx="290.9" cy="264.0" r="7" fill="#005c3c"/><circle cx="244.0" cy="310.9" r="7" fill="#005c3c"/><circle cx="180.0" cy="328.0" r="7" fill="#005c3c"/><circle cx="116.0" cy="310.9" r="7" fill="#005c3c"/><circle cx="69.1" cy="264.0" r="7" fill="#005c3c"/><circle cx="52.0" cy="200.0" r="7" fill="#005c3c"/><circle cx="69.1" cy="136.0" r="7" fill="#005c3c"/><circle cx="116.0" cy="89.1" r="7" fill="#005c3c"/><circle cx="180.0" cy="72.0" r="7" fill="#005c3c"/><circle cx="244.0" cy="89.1" r="7" fill="#005c3c"/><circle cx="290.9" cy="136.0" r="7" fill="#005c3c"/><path d="M 136.0 262.6 L 136.0 118.6 L 168.0 198.6 L 180.0 170.6 L 192.0 198.6 L 224.0 118.6 L 224.0 262.6 Z" fill="#005c3c"/></g><text width="200" class="curved-text" dominant-baseline="middle" style="font-size: 16px;"><textPath href="#curve-top" startOffset="50%" text-anchor="middle">NO PICTURE AVAILABLE</textPath></text><text width="200" class="curved-text" dominant-baseline="middle" style="font-size: 16px;"><textPath href="#curve-bottom" startOffset="50%" text-anchor="middle">SHARE IF YOU HAVE ONE</textPath></text></svg>
